{
  "asset": {
    "generator": "gltfeditor.com",
    "version": "2.0"
  },
  "buffers": [
    {
      "uri": "data:application/octet-stream;base64,",
      "byteLength": 237592
    }
  ],
  "bufferViews": [
    {
      "buffer": 0,
      "byteOffset": 0,
      "byteLength": 1728,
      "target": 34962,
      "byteStride": 12
    },
    {
      "buffer": 0,
      "byteOffset": 1728,
      "byteLength": 1728,
      "target": 34962,
      "byteStride": 12
    },
    {
      "buffer": 0,
      "byteOffset": 3456,
      "byteLength": 1152,
      "target": 34962,
      "byteStride": 8
    },
    {
      "buffer": 0,
      "byteOffset": 4608,
      "byteLength": 552,
      "target": 34963
    }
  ],
  "accessors": [
    {
      "bufferView": 0,
      "byteOffset": 0,
      "componentType": 5126,
      "normalized": false,
      "count": 144,
      "max": [
        -0.4441250264644623,
        1.0939910411834717,
        1
      ],
      "min": [
        -0.5411190986633301,
        -0.14989709854125977,
        -0.14873863756656647
      ],
      "type": "VEC3"
    },
    {
      "bufferView": 1,
      "byteOffset": 0,
      "componentType": 5126,
      "normalized": false,
      "count": 144,
      "max": [
        1,
        0.9997393488883972,
        0.999265193939209
      ],
      "min": [
        -0.9999998211860657,
        -0.9997393488883972,
        -0.9992964267730713
      ],
      "type": "VEC3"
    },
    {
      "bufferView": 2,
      "byteOffset": 0,
      "componentType": 5126,
      "normalized": false,
      "count": 144,
      "max": [
        1,
        1
      ],
      "min": [
        0,
        0.03709489107131958
      ],
      "type": "VEC2"
    },
    {
      "bufferView": 3,
      "byteOffset": 0,
      "componentType": 5123,
      "normalized": false,
      "count": 276,
      "max": [
        143
      ],
      "min": [
        0
      ],
      "type": "SCALAR"
    }
  ],
  "scene": 0,
  "scenes": [
    {
      "nodes": [
        0,
        1,
        2
      ],
      "name": "Scene"
    }
  ],
  "nodes": [
    {
      "name": "Light",
      "matrix": [
        -0.2908647358417511,
        -0.055189065635204315,
        -0.9551712274551392,
        0,
        0.566393256187439,
        0.7946722507476807,
        -0.21839122474193573,
        0,
        0.7711008787155151,
        -0.6045247912406921,
        -0.19988344609737396,
        0,
        4.076245307922363,
        5.903861999511719,
        -1.0054539442062378,
        1
      ]
    },
    {
      "name": "Camera",
      "matrix": [
        0.6859206557273865,
        -4.011331711240018e-9,
        -0.7276763319969177,
        0,
        0.6515582203865051,
        0.44527140259742737,
        0.6141703724861145,
        0,
        0.32401347160339355,
        -0.8953956365585327,
        0.3054208755493164,
        0,
        7.358891487121582,
        4.958309173583984,
        6.925790786743164,
        1
      ]
    },
    {
      "name": "Cube.001",
      "matrix": [
        -1,
        0,
        8.742277657347586e-8,
        0,
        0,
        1,
        0,
        0,
        -8.742277657347586e-8,
        0,
        -1,
        0,
        -1.098038911819458,
        2.9171578884124756,
        0.3164602518081665,
        1
      ],
      "mesh": 0
    }
  ],
  "meshes": [
    {
      "primitives": [
        {
          "material": 0,
          "mode": 4,
          "attributes": {
            "POSITION": 0,
            "NORMAL": 1,
            "TEXCOORD_0": 2
          },
          "indices": 3
        }
      ]
    }
  ],
  "materials": [
    {
      "pbrMetallicRoughness": {
        "baseColorFactor": [
          1,
          1,
          1,
          1
        ],
        "metallicFactor": 0,
        "roughnessFactor": 1,
        "baseColorTexture": {
          "index": 0,
          "texCoord": 0
        },
        "metallicRoughnessTexture": {
          "index": 1,
          "texCoord": 0
        }
      },
      "emissiveFactor": [
        0,
        0,
        0
      ],
      "alphaMode": "OPAQUE",
      "doubleSided": true
    }
  ],
  "textures": [
    {
      "sampler": 0,
      "source": 0
    },
    {
      "sampler": 1,
      "source": 1
    }
  ],
  "samplers": [
    {
      "magFilter": 9729,
      "minFilter": 9987,
      "wrapS": 10497,
      "wrapT": 10497
    },
    {
      "magFilter": 9729,
      "minFilter": 9987,
      "wrapS": 10497,
      "wrapT": 10497
    }
  ],
  "images": [
    {
      "uri": "data:image/png;base64,",
      "mimeType": "image/png"
    },
    {
      "uri": "data:image/png;base64,",
      "mimeType": "image/png"
    }
  ]
}